<mxfile host="Electron" modified="2023-04-22T11:07:21.612Z" agent="Mozilla/5.0 (X11; Linux x86_64) AppleWebKit/537.36 (KHTML, like Gecko) draw.io/21.1.2 Chrome/106.0.5249.199 Electron/21.4.3 Safari/537.36" etag="Lq3KOogmmdYEw89PcFVD" version="21.1.2" type="device">
  <diagram name="Page-1" id="eJ69Pohy2aYyIonqcF8D">
    <mxGraphModel dx="989" dy="557" grid="1" gridSize="10" guides="1" tooltips="1" connect="1" arrows="1" fold="1" page="1" pageScale="1" pageWidth="1100" pageHeight="850" math="1" shadow="0">
      <root>
        <mxCell id="0" />
        <mxCell id="1" parent="0" />
        <mxCell id="A7biCbYG0YD73cMPB3DU-1" value="" style="rounded=0;whiteSpace=wrap;html=1;" parent="1" vertex="1">
          <mxGeometry x="360" y="320" width="240" height="160" as="geometry" />
        </mxCell>
        <mxCell id="A7biCbYG0YD73cMPB3DU-2" value="" style="endArrow=none;html=1;rounded=0;exitX=0.333;exitY=1;exitDx=0;exitDy=0;exitPerimeter=0;" parent="1" source="A7biCbYG0YD73cMPB3DU-1" edge="1">
          <mxGeometry width="50" height="50" relative="1" as="geometry">
            <mxPoint x="390" y="370" as="sourcePoint" />
            <mxPoint x="440" y="320" as="targetPoint" />
          </mxGeometry>
        </mxCell>
        <mxCell id="A7biCbYG0YD73cMPB3DU-4" value="1/3" style="text;html=1;strokeColor=none;fillColor=none;align=center;verticalAlign=middle;whiteSpace=wrap;rounded=0;" parent="1" vertex="1">
          <mxGeometry x="370" y="270" width="60" height="30" as="geometry" />
        </mxCell>
        <mxCell id="A7biCbYG0YD73cMPB3DU-5" value="2/3" style="text;html=1;strokeColor=none;fillColor=none;align=center;verticalAlign=middle;whiteSpace=wrap;rounded=0;" parent="1" vertex="1">
          <mxGeometry x="490" y="270" width="60" height="30" as="geometry" />
        </mxCell>
        <mxCell id="A7biCbYG0YD73cMPB3DU-6" value="" style="shape=curlyBracket;whiteSpace=wrap;html=1;rounded=1;flipH=1;labelPosition=right;verticalLabelPosition=middle;align=left;verticalAlign=middle;direction=south;" parent="1" vertex="1">
          <mxGeometry x="360" y="290" width="79" height="20" as="geometry" />
        </mxCell>
        <mxCell id="A7biCbYG0YD73cMPB3DU-7" value="" style="shape=curlyBracket;whiteSpace=wrap;html=1;rounded=1;flipH=1;labelPosition=right;verticalLabelPosition=middle;align=left;verticalAlign=middle;direction=south;" parent="1" vertex="1">
          <mxGeometry x="441" y="290" width="159" height="20" as="geometry" />
        </mxCell>
        <mxCell id="A7biCbYG0YD73cMPB3DU-17" value="" style="rounded=0;whiteSpace=wrap;html=1;" parent="1" vertex="1">
          <mxGeometry x="640" y="320" width="80" height="160" as="geometry" />
        </mxCell>
        <mxCell id="A7biCbYG0YD73cMPB3DU-18" value="" style="rounded=0;whiteSpace=wrap;html=1;" parent="1" vertex="1">
          <mxGeometry x="720" y="320" width="159" height="160" as="geometry" />
        </mxCell>
        <mxCell id="A7biCbYG0YD73cMPB3DU-19" value="1" style="text;html=1;strokeColor=none;fillColor=none;align=center;verticalAlign=middle;whiteSpace=wrap;rounded=0;" parent="1" vertex="1">
          <mxGeometry x="650" y="385" width="60" height="30" as="geometry" />
        </mxCell>
        <mxCell id="A7biCbYG0YD73cMPB3DU-20" value="1" style="text;html=1;strokeColor=none;fillColor=none;align=center;verticalAlign=middle;whiteSpace=wrap;rounded=0;" parent="1" vertex="1">
          <mxGeometry x="369.5" y="380" width="60" height="30" as="geometry" />
        </mxCell>
        <mxCell id="A7biCbYG0YD73cMPB3DU-21" value="" style="endArrow=none;html=1;rounded=0;exitX=1;exitY=0.75;exitDx=0;exitDy=0;entryX=0;entryY=0.75;entryDx=0;entryDy=0;" parent="1" source="A7biCbYG0YD73cMPB3DU-18" target="A7biCbYG0YD73cMPB3DU-18" edge="1">
          <mxGeometry width="50" height="50" relative="1" as="geometry">
            <mxPoint x="760" y="370" as="sourcePoint" />
            <mxPoint x="810" y="320" as="targetPoint" />
          </mxGeometry>
        </mxCell>
        <mxCell id="A7biCbYG0YD73cMPB3DU-22" value="2" style="text;html=1;strokeColor=none;fillColor=none;align=center;verticalAlign=middle;whiteSpace=wrap;rounded=0;" parent="1" vertex="1">
          <mxGeometry x="769.5" y="360" width="60" height="30" as="geometry" />
        </mxCell>
        <mxCell id="A7biCbYG0YD73cMPB3DU-23" value="3" style="text;html=1;strokeColor=none;fillColor=none;align=center;verticalAlign=middle;whiteSpace=wrap;rounded=0;" parent="1" vertex="1">
          <mxGeometry x="769.5" y="447" width="60" height="26" as="geometry" />
        </mxCell>
        <mxCell id="A7biCbYG0YD73cMPB3DU-24" value="" style="shape=curlyBracket;whiteSpace=wrap;html=1;rounded=1;flipH=1;labelPosition=right;verticalLabelPosition=middle;align=left;verticalAlign=middle;" parent="1" vertex="1">
          <mxGeometry x="890" y="320" width="20" height="119" as="geometry" />
        </mxCell>
        <mxCell id="A7biCbYG0YD73cMPB3DU-25" value="3/4" style="text;html=1;strokeColor=none;fillColor=none;align=center;verticalAlign=middle;whiteSpace=wrap;rounded=0;" parent="1" vertex="1">
          <mxGeometry x="900" y="365" width="60" height="30" as="geometry" />
        </mxCell>
        <mxCell id="A7biCbYG0YD73cMPB3DU-27" value="" style="shape=curlyBracket;whiteSpace=wrap;html=1;rounded=1;flipH=1;labelPosition=right;verticalLabelPosition=middle;align=left;verticalAlign=middle;" parent="1" vertex="1">
          <mxGeometry x="890" y="441" width="20" height="39" as="geometry" />
        </mxCell>
        <mxCell id="A7biCbYG0YD73cMPB3DU-28" value="1/4" style="text;html=1;strokeColor=none;fillColor=none;align=center;verticalAlign=middle;whiteSpace=wrap;rounded=0;" parent="1" vertex="1">
          <mxGeometry x="900" y="455" width="60" height="30" as="geometry" />
        </mxCell>
        <mxCell id="w45Ugr5v-ku_02miYKoD-16" value="" style="group" parent="1" vertex="1" connectable="0">
          <mxGeometry x="700" y="495" width="150" height="95" as="geometry" />
        </mxCell>
        <mxCell id="w45Ugr5v-ku_02miYKoD-17" value="V" style="text;html=1;align=center;verticalAlign=middle;resizable=0;points=[[0.37,0.6,0,0,0],[0.7,0.6,0,0,0]];autosize=1;strokeColor=none;fillColor=none;fontSize=13;fontFamily=Helvetica;fontColor=none;" parent="w45Ugr5v-ku_02miYKoD-16" vertex="1">
          <mxGeometry x="60" width="30" height="30" as="geometry" />
        </mxCell>
        <mxCell id="w45Ugr5v-ku_02miYKoD-18" value="1" style="text;html=1;align=center;verticalAlign=middle;resizable=0;points=[[0.37,0.7,0,0,0],[0.67,0.3,0,0,0],[0.67,0.7,0,0,0]];autosize=1;strokeColor=none;fillColor=none;fontSize=13;fontFamily=Helvetica;fontColor=none;" parent="w45Ugr5v-ku_02miYKoD-16" vertex="1">
          <mxGeometry x="25" y="30" width="30" height="30" as="geometry" />
        </mxCell>
        <mxCell id="w45Ugr5v-ku_02miYKoD-19" style="edgeStyle=none;shape=connector;rounded=0;orthogonalLoop=1;jettySize=auto;html=1;entryX=0.67;entryY=0.3;entryDx=0;entryDy=0;entryPerimeter=0;labelBackgroundColor=default;strokeColor=default;strokeWidth=0.7;fontFamily=Helvetica;fontSize=13;fontColor=none;endArrow=none;endFill=0;endSize=2;exitX=0.37;exitY=0.6;exitDx=0;exitDy=0;exitPerimeter=0;" parent="w45Ugr5v-ku_02miYKoD-16" source="w45Ugr5v-ku_02miYKoD-17" target="w45Ugr5v-ku_02miYKoD-18" edge="1">
          <mxGeometry relative="1" as="geometry" />
        </mxCell>
        <mxCell id="w45Ugr5v-ku_02miYKoD-24" value="&lt;b&gt;H&lt;/b&gt;" style="text;html=1;align=center;verticalAlign=middle;resizable=0;points=[[0.37,0.3,0,0,0],[0.37,0.7,0,0,0],[0.67,0.3,0,0,0],[0.67,0.7,0,0,0]];autosize=1;strokeColor=none;fillColor=none;fontSize=13;fontFamily=Helvetica;fontColor=none;" parent="w45Ugr5v-ku_02miYKoD-16" vertex="1">
          <mxGeometry x="95" y="30" width="30" height="30" as="geometry" />
        </mxCell>
        <mxCell id="w45Ugr5v-ku_02miYKoD-25" style="edgeStyle=none;shape=connector;rounded=0;orthogonalLoop=1;jettySize=auto;html=1;entryX=0.37;entryY=0.3;entryDx=0;entryDy=0;entryPerimeter=0;labelBackgroundColor=default;strokeColor=default;strokeWidth=0.7;fontFamily=Helvetica;fontSize=13;fontColor=none;endArrow=none;endFill=0;endSize=2;exitX=0.7;exitY=0.6;exitDx=0;exitDy=0;exitPerimeter=0;" parent="w45Ugr5v-ku_02miYKoD-16" source="w45Ugr5v-ku_02miYKoD-17" target="w45Ugr5v-ku_02miYKoD-24" edge="1">
          <mxGeometry relative="1" as="geometry" />
        </mxCell>
        <mxCell id="w45Ugr5v-ku_02miYKoD-26" value="2" style="text;html=1;align=center;verticalAlign=middle;resizable=0;points=[[0.7,0.23,0,0,0]];autosize=1;strokeColor=none;fillColor=none;fontSize=13;fontFamily=Helvetica;fontColor=none;" parent="w45Ugr5v-ku_02miYKoD-16" vertex="1">
          <mxGeometry x="70" y="65" width="30" height="30" as="geometry" />
        </mxCell>
        <mxCell id="w45Ugr5v-ku_02miYKoD-27" style="edgeStyle=none;shape=connector;rounded=0;orthogonalLoop=1;jettySize=auto;html=1;entryX=0.7;entryY=0.23;entryDx=0;entryDy=0;entryPerimeter=0;labelBackgroundColor=default;strokeColor=default;strokeWidth=0.7;fontFamily=Helvetica;fontSize=13;fontColor=none;endArrow=none;endFill=0;endSize=2;exitX=0.37;exitY=0.7;exitDx=0;exitDy=0;exitPerimeter=0;" parent="w45Ugr5v-ku_02miYKoD-16" source="w45Ugr5v-ku_02miYKoD-24" target="w45Ugr5v-ku_02miYKoD-26" edge="1">
          <mxGeometry relative="1" as="geometry" />
        </mxCell>
        <mxCell id="w45Ugr5v-ku_02miYKoD-28" value="3" style="text;html=1;align=center;verticalAlign=middle;resizable=0;points=[[0.4,0.27,0,0,0]];autosize=1;strokeColor=none;fillColor=none;fontSize=13;fontFamily=Helvetica;fontColor=none;" parent="w45Ugr5v-ku_02miYKoD-16" vertex="1">
          <mxGeometry x="120" y="65" width="30" height="30" as="geometry" />
        </mxCell>
        <mxCell id="w45Ugr5v-ku_02miYKoD-29" style="edgeStyle=none;shape=connector;rounded=0;orthogonalLoop=1;jettySize=auto;html=1;entryX=0.4;entryY=0.27;entryDx=0;entryDy=0;entryPerimeter=0;labelBackgroundColor=default;strokeColor=default;strokeWidth=0.7;fontFamily=Helvetica;fontSize=13;fontColor=none;endArrow=none;endFill=0;endSize=2;exitX=0.67;exitY=0.7;exitDx=0;exitDy=0;exitPerimeter=0;" parent="w45Ugr5v-ku_02miYKoD-16" source="w45Ugr5v-ku_02miYKoD-24" target="w45Ugr5v-ku_02miYKoD-28" edge="1">
          <mxGeometry relative="1" as="geometry" />
        </mxCell>
        <mxCell id="w45Ugr5v-ku_02miYKoD-40" value="$$&lt;br&gt;a_2 = 12\,,&amp;nbsp;&lt;br&gt;a_3 = 4&lt;br&gt;$$" style="text;html=1;strokeColor=none;fillColor=none;align=left;verticalAlign=middle;whiteSpace=wrap;rounded=0;" parent="1" vertex="1">
          <mxGeometry x="710" y="585" width="150" height="40" as="geometry" />
        </mxCell>
        <mxCell id="w45Ugr5v-ku_02miYKoD-41" value="$$\dfrac{a_2}{\sum a_i} = \dfrac{3}{4},$$" style="text;html=1;strokeColor=none;fillColor=none;align=center;verticalAlign=middle;whiteSpace=wrap;rounded=0;" parent="1" vertex="1">
          <mxGeometry x="700" y="595" width="80" height="90" as="geometry" />
        </mxCell>
        <mxCell id="w45Ugr5v-ku_02miYKoD-42" value="$$\dfrac{a_3}{\sum a_i} = \dfrac{1}{4}$$" style="text;html=1;strokeColor=none;fillColor=none;align=center;verticalAlign=middle;whiteSpace=wrap;rounded=0;" parent="1" vertex="1">
          <mxGeometry x="789.5" y="595" width="80" height="90" as="geometry" />
        </mxCell>
        <mxCell id="w45Ugr5v-ku_02miYKoD-43" value="" style="rounded=0;whiteSpace=wrap;html=1;" parent="1" vertex="1">
          <mxGeometry x="45.25" y="320" width="240" height="160" as="geometry" />
        </mxCell>
        <mxCell id="w45Ugr5v-ku_02miYKoD-44" value="" style="group" parent="1" vertex="1" connectable="0">
          <mxGeometry x="400" y="495" width="150" height="95" as="geometry" />
        </mxCell>
        <mxCell id="w45Ugr5v-ku_02miYKoD-69" value="" style="group" parent="w45Ugr5v-ku_02miYKoD-44" vertex="1" connectable="0">
          <mxGeometry x="25" width="125" height="95" as="geometry" />
        </mxCell>
        <mxCell id="w45Ugr5v-ku_02miYKoD-45" value="&lt;b&gt;V&lt;/b&gt;" style="text;html=1;align=center;verticalAlign=middle;resizable=0;points=[[0.37,0.6,0,0,0],[0.7,0.6,0,0,0]];autosize=1;strokeColor=none;fillColor=none;fontSize=13;fontFamily=Helvetica;fontColor=none;" parent="w45Ugr5v-ku_02miYKoD-69" vertex="1">
          <mxGeometry x="35" width="30" height="30" as="geometry" />
        </mxCell>
        <mxCell id="w45Ugr5v-ku_02miYKoD-68" value="" style="group" parent="w45Ugr5v-ku_02miYKoD-69" vertex="1" connectable="0">
          <mxGeometry y="30" width="125" height="65" as="geometry" />
        </mxCell>
        <mxCell id="w45Ugr5v-ku_02miYKoD-50" value="2" style="text;html=1;align=center;verticalAlign=middle;resizable=0;points=[[0.7,0.23,0,0,0]];autosize=1;strokeColor=none;fillColor=none;fontSize=13;fontFamily=Helvetica;fontColor=none;" parent="w45Ugr5v-ku_02miYKoD-68" vertex="1">
          <mxGeometry x="45" y="35" width="30" height="30" as="geometry" />
        </mxCell>
        <mxCell id="w45Ugr5v-ku_02miYKoD-52" value="3" style="text;html=1;align=center;verticalAlign=middle;resizable=0;points=[[0.4,0.27,0,0,0]];autosize=1;strokeColor=none;fillColor=none;fontSize=13;fontFamily=Helvetica;fontColor=none;" parent="w45Ugr5v-ku_02miYKoD-68" vertex="1">
          <mxGeometry x="95" y="35" width="30" height="30" as="geometry" />
        </mxCell>
        <mxCell id="w45Ugr5v-ku_02miYKoD-67" value="" style="group" parent="w45Ugr5v-ku_02miYKoD-68" vertex="1" connectable="0">
          <mxGeometry width="100" height="30" as="geometry" />
        </mxCell>
        <mxCell id="w45Ugr5v-ku_02miYKoD-46" value="1" style="text;html=1;align=center;verticalAlign=middle;resizable=0;points=[[0.37,0.7,0,0,0],[0.67,0.3,0,0,0],[0.67,0.7,0,0,0]];autosize=1;strokeColor=none;fillColor=none;fontSize=13;fontFamily=Helvetica;fontColor=none;" parent="w45Ugr5v-ku_02miYKoD-67" vertex="1">
          <mxGeometry width="30" height="30" as="geometry" />
        </mxCell>
        <mxCell id="w45Ugr5v-ku_02miYKoD-48" value="H" style="text;html=1;align=center;verticalAlign=middle;resizable=0;points=[[0.37,0.3,0,0,0],[0.37,0.7,0,0,0],[0.67,0.3,0,0,0],[0.67,0.7,0,0,0]];autosize=1;strokeColor=none;fillColor=none;fontSize=13;fontFamily=Helvetica;fontColor=none;" parent="w45Ugr5v-ku_02miYKoD-67" vertex="1">
          <mxGeometry x="70" width="30" height="30" as="geometry" />
        </mxCell>
        <mxCell id="w45Ugr5v-ku_02miYKoD-51" style="edgeStyle=none;shape=connector;rounded=0;orthogonalLoop=1;jettySize=auto;html=1;entryX=0.7;entryY=0.23;entryDx=0;entryDy=0;entryPerimeter=0;labelBackgroundColor=default;strokeColor=default;strokeWidth=0.7;fontFamily=Helvetica;fontSize=13;fontColor=none;endArrow=none;endFill=0;endSize=2;exitX=0.37;exitY=0.7;exitDx=0;exitDy=0;exitPerimeter=0;" parent="w45Ugr5v-ku_02miYKoD-68" source="w45Ugr5v-ku_02miYKoD-48" target="w45Ugr5v-ku_02miYKoD-50" edge="1">
          <mxGeometry relative="1" as="geometry" />
        </mxCell>
        <mxCell id="w45Ugr5v-ku_02miYKoD-53" style="edgeStyle=none;shape=connector;rounded=0;orthogonalLoop=1;jettySize=auto;html=1;entryX=0.4;entryY=0.27;entryDx=0;entryDy=0;entryPerimeter=0;labelBackgroundColor=default;strokeColor=default;strokeWidth=0.7;fontFamily=Helvetica;fontSize=13;fontColor=none;endArrow=none;endFill=0;endSize=2;exitX=0.67;exitY=0.7;exitDx=0;exitDy=0;exitPerimeter=0;" parent="w45Ugr5v-ku_02miYKoD-68" source="w45Ugr5v-ku_02miYKoD-48" target="w45Ugr5v-ku_02miYKoD-52" edge="1">
          <mxGeometry relative="1" as="geometry" />
        </mxCell>
        <mxCell id="w45Ugr5v-ku_02miYKoD-47" style="edgeStyle=none;shape=connector;rounded=0;orthogonalLoop=1;jettySize=auto;html=1;entryX=0.67;entryY=0.3;entryDx=0;entryDy=0;entryPerimeter=0;labelBackgroundColor=default;strokeColor=default;strokeWidth=0.7;fontFamily=Helvetica;fontSize=13;fontColor=none;endArrow=none;endFill=0;endSize=2;exitX=0.37;exitY=0.6;exitDx=0;exitDy=0;exitPerimeter=0;" parent="w45Ugr5v-ku_02miYKoD-69" source="w45Ugr5v-ku_02miYKoD-45" target="w45Ugr5v-ku_02miYKoD-46" edge="1">
          <mxGeometry relative="1" as="geometry" />
        </mxCell>
        <mxCell id="w45Ugr5v-ku_02miYKoD-49" style="edgeStyle=none;shape=connector;rounded=0;orthogonalLoop=1;jettySize=auto;html=1;entryX=0.37;entryY=0.3;entryDx=0;entryDy=0;entryPerimeter=0;labelBackgroundColor=default;strokeColor=default;strokeWidth=0.7;fontFamily=Helvetica;fontSize=13;fontColor=none;endArrow=none;endFill=0;endSize=2;exitX=0.7;exitY=0.6;exitDx=0;exitDy=0;exitPerimeter=0;" parent="w45Ugr5v-ku_02miYKoD-69" source="w45Ugr5v-ku_02miYKoD-45" target="w45Ugr5v-ku_02miYKoD-48" edge="1">
          <mxGeometry relative="1" as="geometry" />
        </mxCell>
        <mxCell id="w45Ugr5v-ku_02miYKoD-54" value="$$&lt;br&gt;a_1 = 8\,,&amp;nbsp;&lt;br&gt;a_2 = 12\,,&amp;nbsp;&lt;br&gt;a_3 = 4&lt;br&gt;$$&lt;br&gt;" style="text;html=1;strokeColor=none;fillColor=none;align=left;verticalAlign=middle;whiteSpace=wrap;rounded=0;" parent="1" vertex="1">
          <mxGeometry x="90.25" y="600" width="150" height="40" as="geometry" />
        </mxCell>
        <mxCell id="w45Ugr5v-ku_02miYKoD-57" value="2,3" style="text;html=1;strokeColor=none;fillColor=none;align=center;verticalAlign=middle;whiteSpace=wrap;rounded=0;" parent="1" vertex="1">
          <mxGeometry x="490.5" y="380" width="60" height="30" as="geometry" />
        </mxCell>
        <mxCell id="w45Ugr5v-ku_02miYKoD-66" value="" style="group" parent="1" vertex="1" connectable="0">
          <mxGeometry x="390" y="590" width="169.5" height="100" as="geometry" />
        </mxCell>
        <mxCell id="w45Ugr5v-ku_02miYKoD-31" value="$$&lt;br&gt;a_1 = 8\,,&amp;nbsp;&lt;br&gt;a_2 = 12\,,&amp;nbsp;&lt;br&gt;a_3 = 4&lt;br&gt;$$&lt;br&gt;" style="text;html=1;strokeColor=none;fillColor=none;align=left;verticalAlign=middle;whiteSpace=wrap;rounded=0;" parent="w45Ugr5v-ku_02miYKoD-66" vertex="1">
          <mxGeometry x="10" width="150" height="40" as="geometry" />
        </mxCell>
        <mxCell id="w45Ugr5v-ku_02miYKoD-35" value="$$\dfrac{a_1}{\sum a_i} = \dfrac{1}{3},$$" style="text;html=1;strokeColor=none;fillColor=none;align=center;verticalAlign=middle;whiteSpace=wrap;rounded=0;" parent="w45Ugr5v-ku_02miYKoD-66" vertex="1">
          <mxGeometry y="10" width="80" height="90" as="geometry" />
        </mxCell>
        <mxCell id="w45Ugr5v-ku_02miYKoD-36" value="$$\dfrac{a_2+a_3}{\sum a_i} = \dfrac{2}{3}$$" style="text;html=1;strokeColor=none;fillColor=none;align=center;verticalAlign=middle;whiteSpace=wrap;rounded=0;" parent="w45Ugr5v-ku_02miYKoD-66" vertex="1">
          <mxGeometry x="89.5" y="10" width="80" height="90" as="geometry" />
        </mxCell>
        <mxCell id="w45Ugr5v-ku_02miYKoD-70" value="" style="group" parent="1" vertex="1" connectable="0">
          <mxGeometry x="80" y="500" width="150" height="95" as="geometry" />
        </mxCell>
        <mxCell id="w45Ugr5v-ku_02miYKoD-71" value="" style="group" parent="w45Ugr5v-ku_02miYKoD-70" vertex="1" connectable="0">
          <mxGeometry x="25" width="125" height="95" as="geometry" />
        </mxCell>
        <mxCell id="w45Ugr5v-ku_02miYKoD-72" value="V" style="text;html=1;align=center;verticalAlign=middle;resizable=0;points=[[0.37,0.6,0,0,0],[0.7,0.6,0,0,0]];autosize=1;strokeColor=none;fillColor=none;fontSize=13;fontFamily=Helvetica;fontColor=none;" parent="w45Ugr5v-ku_02miYKoD-71" vertex="1">
          <mxGeometry x="35" width="30" height="30" as="geometry" />
        </mxCell>
        <mxCell id="w45Ugr5v-ku_02miYKoD-73" value="" style="group" parent="w45Ugr5v-ku_02miYKoD-71" vertex="1" connectable="0">
          <mxGeometry y="30" width="125" height="65" as="geometry" />
        </mxCell>
        <mxCell id="w45Ugr5v-ku_02miYKoD-74" value="2" style="text;html=1;align=center;verticalAlign=middle;resizable=0;points=[[0.7,0.23,0,0,0]];autosize=1;strokeColor=none;fillColor=none;fontSize=13;fontFamily=Helvetica;fontColor=none;" parent="w45Ugr5v-ku_02miYKoD-73" vertex="1">
          <mxGeometry x="45" y="35" width="30" height="30" as="geometry" />
        </mxCell>
        <mxCell id="w45Ugr5v-ku_02miYKoD-75" value="3" style="text;html=1;align=center;verticalAlign=middle;resizable=0;points=[[0.4,0.27,0,0,0]];autosize=1;strokeColor=none;fillColor=none;fontSize=13;fontFamily=Helvetica;fontColor=none;" parent="w45Ugr5v-ku_02miYKoD-73" vertex="1">
          <mxGeometry x="95" y="35" width="30" height="30" as="geometry" />
        </mxCell>
        <mxCell id="w45Ugr5v-ku_02miYKoD-76" value="" style="group" parent="w45Ugr5v-ku_02miYKoD-73" vertex="1" connectable="0">
          <mxGeometry width="100" height="30" as="geometry" />
        </mxCell>
        <mxCell id="w45Ugr5v-ku_02miYKoD-77" value="1" style="text;html=1;align=center;verticalAlign=middle;resizable=0;points=[[0.37,0.7,0,0,0],[0.67,0.3,0,0,0],[0.67,0.7,0,0,0]];autosize=1;strokeColor=none;fillColor=none;fontSize=13;fontFamily=Helvetica;fontColor=none;" parent="w45Ugr5v-ku_02miYKoD-76" vertex="1">
          <mxGeometry width="30" height="30" as="geometry" />
        </mxCell>
        <mxCell id="w45Ugr5v-ku_02miYKoD-78" value="H" style="text;html=1;align=center;verticalAlign=middle;resizable=0;points=[[0.37,0.3,0,0,0],[0.37,0.7,0,0,0],[0.67,0.3,0,0,0],[0.67,0.7,0,0,0]];autosize=1;strokeColor=none;fillColor=none;fontSize=13;fontFamily=Helvetica;fontColor=none;" parent="w45Ugr5v-ku_02miYKoD-76" vertex="1">
          <mxGeometry x="70" width="30" height="30" as="geometry" />
        </mxCell>
        <mxCell id="w45Ugr5v-ku_02miYKoD-79" style="edgeStyle=none;shape=connector;rounded=0;orthogonalLoop=1;jettySize=auto;html=1;entryX=0.7;entryY=0.23;entryDx=0;entryDy=0;entryPerimeter=0;labelBackgroundColor=default;strokeColor=default;strokeWidth=0.7;fontFamily=Helvetica;fontSize=13;fontColor=none;endArrow=none;endFill=0;endSize=2;exitX=0.37;exitY=0.7;exitDx=0;exitDy=0;exitPerimeter=0;" parent="w45Ugr5v-ku_02miYKoD-73" source="w45Ugr5v-ku_02miYKoD-78" target="w45Ugr5v-ku_02miYKoD-74" edge="1">
          <mxGeometry relative="1" as="geometry" />
        </mxCell>
        <mxCell id="w45Ugr5v-ku_02miYKoD-80" style="edgeStyle=none;shape=connector;rounded=0;orthogonalLoop=1;jettySize=auto;html=1;entryX=0.4;entryY=0.27;entryDx=0;entryDy=0;entryPerimeter=0;labelBackgroundColor=default;strokeColor=default;strokeWidth=0.7;fontFamily=Helvetica;fontSize=13;fontColor=none;endArrow=none;endFill=0;endSize=2;exitX=0.67;exitY=0.7;exitDx=0;exitDy=0;exitPerimeter=0;" parent="w45Ugr5v-ku_02miYKoD-73" source="w45Ugr5v-ku_02miYKoD-78" target="w45Ugr5v-ku_02miYKoD-75" edge="1">
          <mxGeometry relative="1" as="geometry" />
        </mxCell>
        <mxCell id="w45Ugr5v-ku_02miYKoD-81" style="edgeStyle=none;shape=connector;rounded=0;orthogonalLoop=1;jettySize=auto;html=1;entryX=0.67;entryY=0.3;entryDx=0;entryDy=0;entryPerimeter=0;labelBackgroundColor=default;strokeColor=default;strokeWidth=0.7;fontFamily=Helvetica;fontSize=13;fontColor=none;endArrow=none;endFill=0;endSize=2;exitX=0.37;exitY=0.6;exitDx=0;exitDy=0;exitPerimeter=0;" parent="w45Ugr5v-ku_02miYKoD-71" source="w45Ugr5v-ku_02miYKoD-72" target="w45Ugr5v-ku_02miYKoD-77" edge="1">
          <mxGeometry relative="1" as="geometry" />
        </mxCell>
        <mxCell id="w45Ugr5v-ku_02miYKoD-82" style="edgeStyle=none;shape=connector;rounded=0;orthogonalLoop=1;jettySize=auto;html=1;entryX=0.37;entryY=0.3;entryDx=0;entryDy=0;entryPerimeter=0;labelBackgroundColor=default;strokeColor=default;strokeWidth=0.7;fontFamily=Helvetica;fontSize=13;fontColor=none;endArrow=none;endFill=0;endSize=2;exitX=0.7;exitY=0.6;exitDx=0;exitDy=0;exitPerimeter=0;" parent="w45Ugr5v-ku_02miYKoD-71" source="w45Ugr5v-ku_02miYKoD-72" target="w45Ugr5v-ku_02miYKoD-78" edge="1">
          <mxGeometry relative="1" as="geometry" />
        </mxCell>
        <mxCell id="0g_dAMGRw03pk14T2Edm-1" value="layout" style="text;html=1;strokeColor=none;fillColor=none;align=center;verticalAlign=middle;whiteSpace=wrap;rounded=0;" vertex="1" parent="1">
          <mxGeometry x="135.25" y="285" width="60" height="30" as="geometry" />
        </mxCell>
        <mxCell id="0g_dAMGRw03pk14T2Edm-2" value="slicing layout" style="text;html=1;strokeColor=none;fillColor=none;align=center;verticalAlign=middle;whiteSpace=wrap;rounded=0;" vertex="1" parent="1">
          <mxGeometry x="720" y="285" width="105" height="30" as="geometry" />
        </mxCell>
        <mxCell id="0g_dAMGRw03pk14T2Edm-3" value="resolved&lt;br&gt;slicing tree" style="text;html=1;strokeColor=none;fillColor=none;align=center;verticalAlign=middle;whiteSpace=wrap;rounded=0;" vertex="1" parent="1">
          <mxGeometry x="20" y="532.5" width="60" height="30" as="geometry" />
        </mxCell>
        <mxCell id="0g_dAMGRw03pk14T2Edm-4" value="painting&lt;br&gt;areas" style="text;html=1;strokeColor=none;fillColor=none;align=center;verticalAlign=middle;whiteSpace=wrap;rounded=0;" vertex="1" parent="1">
          <mxGeometry x="20" y="600" width="60" height="30" as="geometry" />
        </mxCell>
      </root>
    </mxGraphModel>
  </diagram>
</mxfile>
